<?xml version="1.0" encoding="utf-8"?>
<!-- Generator: Adobe Illustrator 24.0.0, SVG Export Plug-In . SVG Version: 6.00 Build 0)  -->
<svg version="1.1" id="Capa_1" xmlns="http://www.w3.org/2000/svg" xmlns:xlink="http://www.w3.org/1999/xlink" x="0px" y="0px"
	 viewBox="0 0 20 20" style="enable-background:new 0 0 20 20;" xml:space="preserve">
<style type="text/css">
	.st0{fill:#004C6F;}
	.st1{fill:#E4AE13;}
	.st2{fill:#E57015;}
</style>
<path class="st0" d="M11.7,12.2c-0.2-0.1-0.3-0.3-0.4-0.5c-0.8-1-1.6-1.9-2.4-2.9c0,0-0.1-0.1-0.1-0.1c0,0,0,0.1,0,0.1
	c0,0.9,0,1.7,0,2.6c0,0.1,0,0.2,0,0.2C8.9,11.9,9,12,9.2,12c0.1,0,0.1,0,0.2,0c0,0,0.1,0,0.1,0.1c0,0,0,0.1-0.1,0.1c0,0,0,0-0.1,0
	c-0.4,0-0.8,0-1.3,0c0,0-0.1,0-0.1-0.1C7.9,12,8,12,8,12c0.1,0,0.1,0,0.2,0c0.2,0,0.3-0.1,0.3-0.3c0-0.1,0-0.2,0-0.3c0-1,0-2,0-3
	c0-0.1,0-0.1-0.1-0.2C8.2,7.9,7.9,7.9,7.5,8C7.3,8.1,7.2,8.2,7.1,8.5C7,8.7,7,8.9,7,9.2c0,1,0,2.1,0,3.1c0,0.4,0,0.8-0.1,1.3
	c-0.1,0.9-0.7,1.4-1.5,1.7c-0.9,0.3-1.9,0.3-2.8,0c-0.8-0.3-1.3-0.9-1.4-1.8c0-0.4-0.1-0.8-0.1-1.2c0-1,0-2,0-3.1
	c0-0.2,0-0.5-0.1-0.7C1,8.1,0.8,8,0.4,8C0.3,8,0.2,8,0.1,8C0,8,0,7.9,0,7.9c0-0.1,0-0.1,0.1-0.1c0.3,0,0.5,0,0.8,0
	c0.8,0,1.5,0,2.3,0c0.1,0,0.1,0,0.1,0.1C3.3,8,3.3,8,3.2,8C3,8,2.9,8,2.7,8C2.5,8.1,2.3,8.2,2.3,8.5c0,0.2-0.1,0.4-0.1,0.5
	c0,1.2,0,2.5,0,3.7c0,0.3,0,0.6,0.1,1C2.5,14.5,3,14.9,3.7,15c0.6,0.1,1.1,0,1.6-0.2c0.6-0.3,1-0.8,1.1-1.4c0-0.3,0.1-0.7,0.1-1
	c0-1.1,0-2.2,0-3.2c0-0.2,0-0.3,0-0.5C6.4,8.2,6.2,8,5.8,8C5.7,8,5.6,8,5.5,8c-0.1,0-0.1,0-0.1-0.1c0-0.1,0-0.1,0.1-0.1
	c0.5,0,1.1,0,1.6,0c0.5,0,1.1,0,1.6,0c0.1,0,0.2,0,0.2,0.1c0.8,1,1.7,2,2.5,3.1c0,0,0,0.1,0.1,0.1c0,0,0-0.1,0-0.1
	c0-0.8,0-1.6,0-2.4c0-0.1,0-0.2,0-0.3c0-0.2-0.1-0.3-0.4-0.4c-0.1,0-0.1,0-0.2,0c0,0-0.1,0-0.1-0.1c0-0.1,0-0.1,0.1-0.1
	c0,0,0.1,0,0.1,0c0.4,0,0.8,0,1.3,0c0,0,0.1,0,0.1,0.1c0,0.1-0.1,0-0.1,0.1c0,0-0.1,0-0.2,0c-0.2,0-0.3,0.1-0.3,0.3
	c0,0.1,0,0.2,0,0.3c0,1.1,0,2.1,0,3.2c0,0,0,0.1,0,0.1C11.8,11.9,11.8,12.1,11.7,12.2z"/>
<path class="st1" d="M16,10c0-0.7,0-1.4,0-2.1c0-0.1,0-0.1,0.1-0.1c0.6,0,1.2,0,1.9,0c1.2,0.1,2,0.9,2,2.1c0,0.6-0.1,1.1-0.5,1.6
	c-0.4,0.5-1,0.8-1.7,0.8c-0.6,0-1.2,0-1.8,0c-0.1,0-0.1,0-0.1-0.1C16,11.4,16,10.7,16,10z M17.4,10c0,0.4,0,0.7,0,1.1
	c0,0,0,0.1,0.1,0.1c0.5,0.1,0.8-0.1,1-0.5c0.1-0.3,0.1-0.6,0.1-1c-0.1-0.7-0.4-0.9-1-0.9c-0.1,0-0.2,0-0.1,0.1
	C17.4,9.3,17.4,9.6,17.4,10z"/>
<path class="st1" d="M11.7,12.2c0-0.1,0.1-0.3,0.1-0.4c0.2-0.5,0.3-1,0.5-1.4c0.3-0.8,0.5-1.7,0.8-2.5c0-0.1,0.1-0.1,0.1-0.1
	c0.4,0,0.8,0,1.2,0c0.1,0,0.1,0,0.1,0.1c0.4,1.4,0.9,2.8,1.3,4.3c0,0.1,0,0.1-0.1,0.1c-0.4,0-0.8,0-1.2,0c-0.1,0-0.1,0-0.1-0.1
	c-0.1-0.2-0.1-0.5-0.2-0.7c0-0.1-0.1-0.1-0.1-0.1c-0.3,0-0.7,0-1,0c-0.1,0-0.1,0-0.1,0.1c-0.1,0.2-0.1,0.5-0.2,0.7
	c0,0,0,0.1-0.1,0.1C12.4,12.2,12.1,12.2,11.7,12.2C11.7,12.2,11.7,12.2,11.7,12.2z M13.7,9.1C13.7,9.1,13.7,9.1,13.7,9.1
	c-0.1,0.4-0.2,0.7-0.3,1.1c0,0,0,0.1,0,0.1c0,0.1,0,0.1,0.1,0.1c0.2,0,0.3,0,0.5,0c0.1,0,0.1,0,0.1-0.1c-0.1-0.2-0.1-0.4-0.2-0.6
	C13.8,9.5,13.8,9.3,13.7,9.1z"/>
<path class="st2" d="M4,4.5c0.3,0,0.5,0.2,0.5,0.5c0,0.3-0.2,0.6-0.5,0.5C3.7,5.6,3.5,5.3,3.5,5C3.5,4.7,3.7,4.5,4,4.5z"/>
<path class="st2" d="M13.4,14.4c0-0.3,0.3-0.5,0.6-0.5c0.3,0,0.5,0.3,0.5,0.6c0,0.3-0.2,0.5-0.5,0.5C13.7,15,13.4,14.7,13.4,14.4z"
	/>
<path class="st2" d="M18.2,14.4c0,0.3-0.2,0.6-0.5,0.6c-0.3,0-0.6-0.2-0.6-0.5c0-0.3,0.2-0.6,0.5-0.6C18,13.9,18.2,14.1,18.2,14.4z"
	/>
<path class="st2" d="M5.9,6.1c-0.3,0-0.6-0.2-0.6-0.5C5.3,5.3,5.6,5,5.9,5c0.3,0,0.5,0.2,0.6,0.5C6.4,5.9,6.2,6.1,5.9,6.1z"/>
<path class="st2" d="M18.9,13.8c-0.3,0-0.6-0.2-0.6-0.5c0-0.3,0.2-0.5,0.5-0.5c0.3,0,0.5,0.2,0.5,0.5C19.5,13.5,19.2,13.8,18.9,13.8
	z"/>
<path class="st2" d="M2.7,5.6c0,0.3-0.2,0.5-0.6,0.5c-0.3,0-0.6-0.3-0.5-0.6C1.6,5.2,1.9,5,2.2,5C2.5,5,2.7,5.2,2.7,5.6z"/>
<path class="st2" d="M0.9,7.3c-0.3,0-0.5-0.2-0.5-0.6c0-0.3,0.3-0.5,0.5-0.5c0.3,0,0.5,0.2,0.5,0.6C1.5,7.1,1.3,7.3,0.9,7.3z"/>
<path class="st2" d="M15.8,15.5c-0.3,0-0.6-0.2-0.5-0.6c0-0.3,0.3-0.5,0.6-0.5c0.3,0,0.5,0.3,0.5,0.5C16.4,15.3,16.2,15.5,15.8,15.5
	z"/>
<path class="st2" d="M13.3,13.2c0,0.3-0.2,0.5-0.6,0.5c-0.3,0-0.5-0.2-0.5-0.5c0-0.3,0.2-0.6,0.6-0.6C13.1,12.7,13.3,12.9,13.3,13.2
	z"/>
<path class="st2" d="M7.1,7.3c-0.3,0-0.6-0.2-0.5-0.5c0-0.3,0.3-0.6,0.6-0.5c0.3,0,0.5,0.2,0.5,0.5C7.7,7.1,7.4,7.3,7.1,7.3z"/>
</svg>
